<svg width="60" height="60" viewBox="0 0 60 60" fill="none" xmlns="http://www.w3.org/2000/svg">
<rect x="1.5" y="1.5" width="57" height="57" rx="13.5" stroke="white" stroke-width="3"/>
<path d="M9.24 39.21C9.22 39.23 9.2 39.24 9.18 39.24C9.12 39.24 9.09 39.15 9.09 38.97C9.09 38.85 9.12 38.73 9.18 38.61C9.26 38.47 9.4 38.39 9.6 38.37C10.16 38.33 10.69 38.14 11.19 37.8C11.69 37.46 12.13 37.06 12.51 36.6C12.89 36.12 13.16 35.67 13.32 35.25L16.08 28.35C16.46 27.41 16.89 26.5 17.37 25.62C17.87 24.74 18.5 24.02 19.26 23.46C20.04 22.9 21.02 22.62 22.2 22.62C22.66 22.62 23.12 22.68 23.58 22.8C24.06 22.9 24.46 23.07 24.78 23.31C25.1 23.55 25.26 23.89 25.26 24.33C25.26 24.39 25.26 24.45 25.26 24.51C25.26 24.57 25.25 24.63 25.23 24.69C25.17 25.01 24.99 25.33 24.69 25.65C24.41 25.97 24.19 26.37 24.03 26.85C24.01 26.99 23.92 27.06 23.76 27.06C23.62 27.06 23.59 26.97 23.67 26.79C23.83 26.55 23.95 26.27 24.03 25.95C24.13 25.61 24.18 25.27 24.18 24.93C24.18 24.41 24.06 23.95 23.82 23.55C23.58 23.15 23.17 22.95 22.59 22.95C22.07 22.95 21.54 23.1 21 23.4C20.46 23.7 19.99 24.22 19.59 24.96L14.04 35.19C13.52 36.15 13.04 36.84 12.6 37.26C12.18 37.66 11.83 37.91 11.55 38.01H18.78C19.74 38.01 20.63 37.98 21.45 37.92C22.27 37.86 22.77 37.71 22.95 37.47C23.15 37.19 23.25 36.89 23.25 36.57C23.25 36.07 22.98 35.7 22.44 35.46C22.38 35.42 22.35 35.38 22.35 35.34C22.35 35.3 22.37 35.26 22.41 35.22C22.47 35.18 22.54 35.18 22.62 35.22C22.8 35.3 23.01 35.48 23.25 35.76C23.51 36.02 23.75 36.31 23.97 36.63C24.19 36.93 24.33 37.17 24.39 37.35C24.45 37.53 24.48 37.71 24.48 37.89C24.48 38.71 23.77 39.12 22.35 39.12C21.23 39.12 20.03 39.08 18.75 39C17.47 38.92 16.2 38.83 14.94 38.73C13.7 38.63 12.53 38.56 11.43 38.52C11.01 38.48 10.59 38.54 10.17 38.7C9.77 38.84 9.46 39.01 9.24 39.21ZM28.8863 39.3C28.2663 39.3 27.6763 39.13 27.1163 38.79C26.5563 38.43 26.1363 37.89 25.8563 37.17C25.7563 36.91 25.6863 36.64 25.6463 36.36C25.6063 36.06 25.5863 35.77 25.5863 35.49C25.5863 35.21 25.6363 35.07 25.7363 35.07C25.8563 35.07 25.9163 35.15 25.9163 35.31C25.9163 36.25 26.1463 36.96 26.6063 37.44C27.0863 37.92 27.6763 38.16 28.3763 38.16C29.0763 38.16 29.7463 37.96 30.3863 37.56C31.0463 37.16 31.6563 36.65 32.2163 36.03C33.1363 35.03 33.9163 34.02 34.5563 33C35.1963 31.96 35.7763 30.9 36.2963 29.82C36.8363 28.72 37.3763 27.58 37.9163 26.4C38.2563 25.68 38.6763 25.05 39.1763 24.51C39.6963 23.97 40.3163 23.6 41.0363 23.4L41.0663 23.37H39.4163C38.7163 23.37 37.9763 23.4 37.1963 23.46C36.4163 23.52 35.7063 23.65 35.0663 23.85C34.4463 24.05 33.9963 24.35 33.7163 24.75C33.5363 25.01 33.4463 25.31 33.4463 25.65C33.4463 25.99 33.5363 26.32 33.7163 26.64C33.8963 26.96 34.1263 27.19 34.4063 27.33C34.4463 27.37 34.4663 27.4 34.4663 27.42C34.4663 27.46 34.4163 27.51 34.3163 27.57C34.2363 27.61 34.1463 27.62 34.0463 27.6C33.8863 27.5 33.6863 27.34 33.4463 27.12C33.2063 26.88 32.9863 26.63 32.7863 26.37C32.6063 26.11 32.4863 25.89 32.4263 25.71C32.3463 25.47 32.3063 25.23 32.3063 24.99C32.3063 24.51 32.4763 24.12 32.8163 23.82C33.1763 23.52 33.6363 23.29 34.1963 23.13C34.7563 22.97 35.3563 22.86 35.9963 22.8C36.6563 22.72 37.2863 22.68 37.8863 22.68C38.5063 22.66 39.0363 22.65 39.4763 22.65H42.7163C42.7563 22.65 42.7763 22.66 42.7763 22.68C42.7763 22.74 42.7063 22.83 42.5663 22.95C42.4463 23.05 42.3663 23.1 42.3263 23.1C41.8263 23.2 41.4563 23.47 41.2163 23.91C40.9763 24.33 40.8663 25.01 40.8863 25.95C40.8863 25.95 40.8863 26.17 40.8863 26.61C40.9063 27.05 40.9263 27.62 40.9463 28.32C40.9663 29.02 40.9863 29.77 41.0063 30.57C41.0263 31.37 41.0463 32.14 41.0663 32.88C41.0863 33.62 41.1063 34.24 41.1263 34.74V34.92L51.5363 23.94C52.1963 23.24 52.8463 22.65 53.4863 22.17C54.1463 21.67 54.8263 21.45 55.5263 21.51C55.5463 21.51 55.5562 21.52 55.5562 21.54C55.5763 21.54 55.5863 21.54 55.5863 21.54C55.5863 21.6 55.5463 21.67 55.4663 21.75C55.3863 21.83 55.2963 21.88 55.1963 21.9C54.6763 21.88 54.2063 22.08 53.7863 22.5C53.3663 22.92 52.9763 23.42 52.6163 24C52.4363 24.3 52.1663 24.78 51.8063 25.44C51.4463 26.08 51.0363 26.84 50.5763 27.72C50.1363 28.6 49.6863 29.53 49.2263 30.51C48.7663 31.49 48.3363 32.45 47.9363 33.39C47.5563 34.33 47.2463 35.19 47.0063 35.97C46.7663 36.73 46.6463 37.35 46.6463 37.83C46.6463 38.39 46.8363 38.67 47.2163 38.67C47.3763 38.67 47.5463 38.63 47.7263 38.55C47.9863 38.45 48.2763 38.3 48.5963 38.1C48.9163 37.9 49.2063 37.67 49.4663 37.41C49.9863 36.91 50.4463 36.4 50.8463 35.88C51.2463 35.34 51.4863 35.03 51.5663 34.95C51.6263 34.87 51.6763 34.83 51.7163 34.83C51.7963 34.83 51.8363 34.89 51.8363 35.01C51.8363 35.13 51.7963 35.24 51.7163 35.34C51.5563 35.54 51.2863 35.89 50.9063 36.39C50.5263 36.87 50.0763 37.36 49.5563 37.86C49.0563 38.36 48.5163 38.74 47.9363 39C47.7563 39.08 47.5663 39.14 47.3663 39.18C47.1663 39.24 46.9663 39.27 46.7663 39.27C46.3263 39.27 45.9263 39.14 45.5663 38.88C45.2263 38.6 45.0563 38.14 45.0563 37.5C45.0563 36.88 45.1963 36.18 45.4763 35.4C45.7763 34.6 46.1063 33.83 46.4663 33.09C46.8463 32.33 47.1563 31.69 47.3963 31.17C47.6563 30.63 47.9863 29.94 48.3863 29.1C48.7863 28.26 49.2463 27.41 49.7663 26.55L41.1263 35.67C41.1063 35.83 41.0363 35.99 40.9163 36.15C40.7963 36.29 40.6063 36.41 40.3463 36.51C40.2063 36.57 40.0163 36.73 39.7763 36.99C39.5363 37.25 39.3763 37.43 39.2963 37.53C39.2963 37.55 39.2663 37.56 39.2063 37.56C39.1463 37.56 39.0863 37.54 39.0263 37.5C38.9663 37.46 38.9463 37.43 38.9663 37.41C39.4863 36.75 39.7563 35.84 39.7763 34.68L39.8063 33.96C39.8463 33.12 39.8763 32.24 39.8963 31.32C39.9163 30.38 39.9263 29.51 39.9263 28.71C39.9463 27.89 39.9563 27.23 39.9563 26.73C39.9563 26.21 39.9563 25.95 39.9563 25.95C39.9563 25.47 40.0263 25.05 40.1663 24.69C40.3063 24.33 40.4763 24.02 40.6763 23.76C40.3363 24.02 40.0063 24.33 39.6863 24.69C39.3663 25.05 39.0963 25.45 38.8763 25.89C38.5763 26.51 38.2363 27.31 37.8563 28.29C37.4763 29.27 37.0363 30.31 36.5363 31.41C36.0563 32.51 35.5163 33.59 34.9163 34.65C34.3363 35.69 33.6863 36.59 32.9663 37.35C32.4663 37.89 31.8263 38.35 31.0463 38.73C30.2863 39.11 29.5663 39.3 28.8863 39.3Z" fill="white"/>
</svg>
